<svg width="512" height="512" viewBox="0 0 512 512" xmlns="http://www.w3.org/2000/svg">
  <defs>
    <style>
      .bg-circle { fill: #386641; }
      .leaf-icon { fill: #a7c957; }
    </style>
  </defs>
  
  <!-- Background circle -->
  <circle cx="256" cy="256" r="256" class="bg-circle"/>
  
  <!-- Leaf icon (simplified version of Lucide Leaf) -->
  <g transform="translate(128, 128) scale(10.666666666666666)">
    <path class="leaf-icon" d="M11 2a2 2 0 0 0-2 2v5H4a2 2 0 0 0-2 2v5a2 2 0 0 0 2 2h5v5a2 2 0 0 0 2 2h5a2 2 0 0 0 2-2v-5h5a2 2 0 0 0 2-2v-5a2 2 0 0 0-2-2h-5V4a2 2 0 0 0-2-2h-5z"/>
    <path class="leaf-icon" d="M7 10.5c0 .83.67 1.5 1.5 1.5h9c.83 0 1.5-.67 1.5-1.5v-3c0-.83-.67-1.5-1.5-1.5H8.5c-.83 0-1.5.67-1.5 1.5v3z"/>
    <path class="leaf-icon" d="M7 17.5c0 .83.67 1.5 1.5 1.5h9c.83 0 1.5-.67 1.5-1.5v-3c0-.83-.67-1.5-1.5-1.5H8.5c-.83 0-1.5.67-1.5 1.5v3z"/>
  </g>
  
  <!-- Simplified leaf path that looks better at small sizes -->
  <path d="M153.6 358.4 Q256 128 358.4 358.4 Q256 307.2 153.6 358.4Z" 
        fill="#a7c957" stroke="#a7c957" stroke-width="1"/>
  <path d="M256 358.4 L256 204.8" 
        stroke="#a7c957" stroke-width="2" stroke-linecap="round"/>
</svg>